<svg id="圖層_1" data-name="圖層 1" xmlns="http://www.w3.org/2000/svg" viewBox="0 0 513.53 434.88"><defs><style>.cls-1{fill:#fff;}</style></defs><title>footprints</title><path class="cls-1" d="M163.36,162.4c-1.24-13.58,4.42-40.46,40.67-36.34,31.25,8.88,27.25,41.5,11.62,50.75S166.72,199.25,163.36,162.4Z"/><path class="cls-1" d="M102.28,141.31s2.62,21.88,17.87,29.88,27-7.88,28.5-10.63,16.38-34-3.75-43C144.9,117.56,100.65,102.44,102.28,141.31Z"/><path class="cls-1" d="M56.12,175.44S69.3,187.61,83,184.52,95.55,165.39,95,162.89s-7.79-29.72-25-24.67C70,138.22,34.59,152.2,56.12,175.44Z"/><path class="cls-1" d="M23,209.33s14.13,9.2,26.31,4.17,8.62-19.71,7.74-21.94-11.92-26.3-27.08-18.9C29.92,172.66-.67,191.22,23,209.33Z"/><path class="cls-1" d="M11.52,248.52s13,2.89,20.67-4.22.92-17-.35-18.43-16.16-16.19-25.35-6.49C6.49,219.38-11,241.65,11.52,248.52Z"/><path class="cls-1" d="M50.07,245.77s3.66-45,59.66-59,103,13,95.67,80.67-8.67,39,12,82.33,6.11,70.35-28.33,82.67C120.9,456.81,37.9,291.44,50.07,245.77Z"/><path class="cls-1" d="M350.18,47.73c1.23-13.58-4.42-40.46-40.67-36.33-31.25,8.87-27.25,41.5-11.63,50.75S346.81,84.58,350.18,47.73Z"/><path class="cls-1" d="M411.26,26.65s-2.63,21.87-17.88,29.87-27-7.87-28.5-10.62-16.37-34,3.75-43C368.63,2.9,412.88-12.23,411.26,26.65Z"/><path class="cls-1" d="M457.41,60.77S444.24,73,430.56,69.86,418,50.72,418.5,48.23s7.8-29.72,25-24.68C443.52,23.55,478.94,37.53,457.41,60.77Z"/><path class="cls-1" d="M490.58,94.67s-14.12,9.19-26.3,4.16-8.63-19.71-7.75-21.94S468.46,50.6,483.61,58C483.61,58,514.2,76.55,490.58,94.67Z"/><path class="cls-1" d="M502,133.86s-13,2.89-20.68-4.23-.91-17,.36-18.43S497.86,95,507,104.71C507,104.71,524.57,127,502,133.86Z"/><path class="cls-1" d="M463.47,131.1s-3.67-45-59.67-59-103,13-95.67,80.67,8.67,39-12,82.33-6.1,70.36,28.34,82.67C392.63,342.15,475.63,176.77,463.47,131.1Z"/></svg>