<svg width="253" height="35" viewBox="0 0 253 35" fill="none" xmlns="http://www.w3.org/2000/svg">
<path d="M21.714 0.435999V6.808H26.07V0.435999H21.714ZM13.974 5.08V12.748H18.006V8.86H30.498V12.748H34.71V5.08H13.974ZM20.706 9.616C19.23 14.8 16.89 21.568 15.126 25.708L19.014 26.968C20.814 22.54 23.262 15.772 24.99 10.264L20.706 9.616ZM13.722 14.728V18.616H35.106V14.728H13.722ZM27.546 17.212C26.61 25.816 21.966 29.2 12.354 30.568C13.074 31.468 14.118 33.268 14.406 34.276C25.134 32.188 30.354 27.976 32.154 17.356L27.546 17.212ZM17.394 25.276C22.794 27.4 29.346 31.144 32.406 34.132L35.142 30.532C31.866 27.544 25.134 24.052 19.878 22.144L17.394 25.276ZM0.870002 18.868L1.95 23.008C5.37 22.108 9.726 20.92 13.83 19.768L13.326 15.88C8.826 16.996 4.074 18.184 0.870002 18.868ZM1.41 7.24V11.236H13.398V7.24H1.41ZM5.766 0.435999V29.704C5.766 30.208 5.586 30.388 5.082 30.388C4.614 30.388 3.138 30.388 1.734 30.352C2.274 31.432 2.814 33.16 2.922 34.24C5.442 34.24 7.17 34.132 8.358 33.484C9.546 32.836 9.942 31.756 9.942 29.74V0.435999H5.766ZM74.562 0.939999C70.026 2.56 62.862 3.964 56.382 4.756C56.85 5.764 57.462 7.42 57.642 8.464C64.338 7.744 72.042 6.484 77.73 4.576L74.562 0.939999ZM55.338 15.484V19.624H78.594V15.484H55.338ZM56.814 28.876V33.016H78.198V28.876H56.814ZM65.166 6.232V30.172H69.558V6.232H65.166ZM49.866 10.912V34.204H54.15V6.772L54.114 6.7L49.866 10.912ZM53.466 0.543999C51.414 5.872 47.994 11.164 44.394 14.476C45.186 15.592 46.482 17.968 46.914 19.048C51.126 14.872 55.23 8.212 57.714 1.912L53.466 0.543999ZM97.89 21.244V19.696H113.514V21.244H97.89ZM97.89 17.176V15.628H113.514V17.176H97.89ZM117.798 12.964H93.822V23.908H117.798V12.964ZM114.882 5.764L110.382 4.936C110.094 5.908 109.518 7.276 109.05 8.284L112.866 9.112C113.406 8.248 114.09 7.132 114.882 5.764ZM100.806 4.936L96.846 5.728C97.35 6.808 97.818 8.212 97.962 9.184L102.066 8.248C101.85 7.348 101.346 5.98 100.806 4.936ZM107.754 0.435999H103.398V4.756H107.754V0.435999ZM121.326 8.284H90.042V11.632H121.326V8.284ZM119.382 2.344H91.77V5.692H119.382V2.344ZM96.954 26.428L93.354 25.096C92.49 27.508 90.87 29.848 88.602 31.252L91.95 33.52C94.506 31.828 95.982 29.164 96.954 26.428ZM116.718 24.664L113.37 26.536C115.566 28.516 118.014 31.36 119.022 33.304L122.622 31.216C121.47 29.2 118.914 26.536 116.718 24.664ZM104.19 23.116L101.886 25.384C103.902 26.356 106.458 27.868 107.718 28.948L110.202 26.428C108.834 25.348 106.206 23.944 104.19 23.116ZM102.102 29.344V25.6H97.89V29.38C97.89 32.8 99.006 33.88 103.578 33.88C104.478 33.88 108.438 33.88 109.41 33.88C112.794 33.88 113.946 32.872 114.378 28.804C113.298 28.588 111.606 28.012 110.742 27.436C110.562 29.992 110.31 30.388 109.014 30.388C108.006 30.388 104.802 30.388 104.046 30.388C102.39 30.388 102.102 30.28 102.102 29.344ZM145.194 2.956V6.736H149.874V2.956H145.194ZM152.034 7.96V11.236H163.374V7.96H152.034ZM163.338 7.708V11.488H166.578V7.708H163.338ZM153.186 17.644V21.064H165.246V17.644H153.186ZM152.466 22.792V26.32H165.894V22.792H152.466ZM156.678 0.615999V29.272H160.17V0.615999H156.678ZM148.974 2.956V3.352C148.11 6.556 146.274 12.712 144.69 17.176L148.002 17.824C149.514 13.324 151.314 7.492 152.43 3.316L149.982 2.812L149.406 2.956H148.974ZM153.546 3.28V6.448H162.006V12.784H153.582V15.952H165.066V3.28H153.546ZM147.822 18.76L145.014 19.516C146.994 31.504 151.242 33.664 158.226 33.664H165.57C165.714 32.62 166.218 30.892 166.758 30.028C165.066 30.064 159.81 30.064 158.442 30.064C153.042 30.064 149.37 28.48 147.822 18.76ZM147.498 13.432L146.49 16.852H150.99V13.432H147.498ZM149.838 13.432V14.044C149.226 23.728 146.922 29.128 142.386 31.936C143.142 32.404 144.546 33.628 145.122 34.312C149.766 31.144 152.394 24.844 153.186 13.72L151.098 13.36L150.486 13.432H149.838ZM132.558 29.74L133.422 33.448C136.806 32.8 141.162 31.972 145.266 31.144L144.942 27.58C140.442 28.444 135.69 29.272 132.558 29.74ZM134.358 9.472V12.964H144.222V9.472H134.358ZM133.134 15.556V19.156H144.654V15.556H133.134ZM133.35 21.316C133.854 23.296 134.322 25.924 134.394 27.652L137.058 26.968C136.914 25.276 136.446 22.72 135.87 20.704L133.35 21.316ZM142.17 20.344C141.954 22.072 141.414 24.628 140.982 26.212L143.322 26.788C143.79 25.276 144.294 23.008 144.834 20.956L142.17 20.344ZM137.382 10.912V30.208L140.838 29.668V10.912H137.382ZM137.706 0.435999C136.626 3.28 134.646 6.736 131.694 9.328C132.486 9.904 133.71 11.2 134.25 12.064C137.706 8.824 139.794 5.08 141.126 2.308V1.228H139.938V0.435999H137.706ZM137.994 0.435999V3.208H138.642C140.406 4.936 142.53 8.068 143.466 9.868L146.166 6.772C145.086 4.9 142.782 2.272 140.874 0.435999H137.994ZM189.618 19.516C190.41 20.776 191.13 22.468 191.382 23.548L193.542 22.792C193.326 21.712 192.534 20.092 191.706 18.868L189.618 19.516ZM183.606 16.78C184.902 17.752 186.45 19.192 187.134 20.236L188.574 18.328C187.854 17.356 186.306 16.024 185.01 15.124L183.606 16.78ZM187.602 12.82C187.098 13.828 186.126 15.376 185.37 16.384L187.242 17.212C188.07 16.348 189.114 15.052 190.122 13.792L187.602 12.82ZM190.05 15.448C188.826 17.176 186.63 19.732 184.902 21.28L186.558 22.108C188.286 20.704 190.518 18.4 192.282 16.456L190.05 15.448ZM193.83 23.476V33.556H196.746V23.476H193.83ZM183.318 20.992L183.57 23.332C186.018 23.152 188.862 22.9 191.85 22.612L191.814 20.416C188.574 20.668 185.55 20.848 183.318 20.992ZM198.726 19.3C199.59 20.704 200.418 22.54 200.67 23.764L202.938 23.008C202.65 21.784 201.786 19.984 200.886 18.688L198.726 19.3ZM192.174 16.6C193.578 17.68 195.234 19.3 195.954 20.38L197.574 18.58C196.818 17.536 195.126 16.024 193.722 15.016L192.174 16.6ZM196.35 12.784C195.774 13.9 194.658 15.592 193.83 16.636L195.738 17.5C196.674 16.564 197.826 15.16 198.942 13.792L196.35 12.784ZM198.906 15.484C197.61 17.284 195.27 19.912 193.434 21.46L195.126 22.36C196.998 20.884 199.338 18.544 201.21 16.528L198.906 15.484ZM192.894 20.992L193.398 23.332C195.738 23.116 198.474 22.936 201.246 22.648L201.21 20.488C198.042 20.704 195.126 20.884 192.894 20.992ZM184.398 24.052V29.56H190.95V27.184H187.062V24.052H184.398ZM199.014 24.052V27.184H196.134V29.56H201.678V24.052H199.014ZM189.222 23.476V26.86C189.222 28.768 188.718 30.604 184.974 31.72C185.586 32.26 186.486 33.376 186.846 34.06C191.418 32.476 192.102 29.776 192.102 26.968V23.476H189.222ZM180.078 6.412V9.004H189.114V6.412H180.078ZM196.638 6.412V9.004H205.782V6.412H196.638ZM204.306 1.804V29.272C204.306 29.74 204.162 29.92 203.694 29.92C203.226 29.92 201.786 29.92 200.454 29.848C200.994 30.964 201.534 32.908 201.678 34.06C204.054 34.06 205.71 33.988 206.934 33.268C208.158 32.548 208.482 31.36 208.482 29.308V1.804H204.306ZM180.474 1.804V4.72H187.818V10.66H180.474V13.576H191.886V1.804H180.474ZM206.466 1.804H194.226V13.576H206.466V10.66H198.33V4.72H206.466V1.804ZM177.918 1.804V34.24H182.022V1.804H177.918ZM227.994 18.364V21.856H245.778V18.364H227.994ZM237.21 15.592V29.452C237.21 29.848 237.066 29.956 236.634 29.992C236.202 29.992 234.798 29.992 233.502 29.956C234.006 30.892 234.582 32.44 234.762 33.484C236.886 33.484 238.434 33.448 239.586 32.872C240.774 32.26 241.062 31.288 241.062 29.56V15.592H237.21ZM236.346 20.488C234.294 23.512 230.334 26.572 226.734 28.12C227.598 28.84 228.786 30.28 229.434 31.216C233.142 29.2 237.138 25.492 239.406 21.712L236.346 20.488ZM223.818 6.808V9.724H232.854V6.808H223.818ZM240.522 6.808V9.724H249.63V6.808H240.522ZM247.866 1.804V29.02C247.866 29.668 247.614 29.92 246.93 29.92C246.21 29.92 243.762 29.956 241.638 29.848C242.286 30.964 242.97 33.016 243.15 34.24C246.462 34.24 248.694 34.168 250.242 33.448C251.718 32.728 252.222 31.504 252.222 29.056V1.804H247.866ZM224.178 1.804V4.936H231.522V11.776H224.178V14.872H235.554V1.804H224.178ZM250.17 1.804H238.002V14.98H250.17V11.884H242.106V4.936H250.17V1.804ZM221.694 1.804V34.24H225.978V1.804H221.694Z" fill="white" fill-opacity="0.8"/>
</svg>
